<svg height="512" viewBox="0 0 256 256" width="512" xmlns="http://www.w3.org/2000/svg"><path d="m94.833 52.648a33.154 33.154 0 1 1 26.283 32.447l-9.807 6.074a4.033 4.033 0 0 1 -6.156-3.428v-11.063a33.063 33.063 0 0 1 -10.32-24.03z" fill="#63bce7"/><path d="m113.333 52.648a33.174 33.174 0 0 1 23.913-31.848 32.579 32.579 0 0 0 -6.893-1.237 33.16 33.16 0 0 0 -25.2 57.115v11.062a4.033 4.033 0 0 0 6.156 3.428l9.807-6.074c.834.176 1.682.31 2.537.423v-8.84a33.063 33.063 0 0 1 -10.32-24.029z" fill="#6377e7"/><path d="m132.582 37.273-.738 17.176a3.848 3.848 0 0 1 -3.844 3.682 3.848 3.848 0 0 1 -3.844-3.683l-.738-17.176a3.848 3.848 0 0 1 3.844-4.013h1.475a3.848 3.848 0 0 1 3.845 4.014zm-.031 28.878v1a3.848 3.848 0 0 1 -3.851 3.849h-1.357a3.848 3.848 0 0 1 -3.848-3.848v-1a3.848 3.848 0 0 1 3.848-3.848h1.357a3.848 3.848 0 0 1 3.851 3.847z" fill="#3f3679"/><rect fill="#f87023" height="33.007" rx="7.083" width="17.426" x="44.584" y="93.032"/><rect fill="#f8af23" height="53.49" rx="22.944" width="46.873" x="36.714" y="55.63"/><path d="m55.214 86.177v-7.6a22.947 22.947 0 0 1 14.186-21.212 22.869 22.869 0 0 0 -8.757-1.734h-.986a22.944 22.944 0 0 0 -22.943 22.943v7.6a22.944 22.944 0 0 0 22.944 22.944h.986a22.869 22.869 0 0 0 8.757-1.734 22.947 22.947 0 0 1 -14.187-21.207z" fill="#f87023"/><path d="m46.232 117.513h12.462a27.083 27.083 0 0 1 27.083 27.087v80.95a0 0 0 0 1 0 0h-66.628a0 0 0 0 1 0 0v-80.95a27.083 27.083 0 0 1 27.083-27.087z" fill="#707070"/><path d="m61.713 117.684a27.348 27.348 0 0 0 -3.019-.172h-12.462a27.083 27.083 0 0 0 -27.083 27.088v80.95h18.5v-80.95a27.084 27.084 0 0 1 24.064-26.916z" fill="#5b5b5b"/><path d="m125.447 178.658h-43.718a12.3 12.3 0 0 1 -7.057-2.226l-30.292-21.219a12.3 12.3 0 1 1 14.115-20.15l27.114 18.993h39.838a12.3 12.3 0 0 1 0 24.6z" fill="#cecece"/><path d="m145.728 154.056h-25.839v24.6h5.558a12.27 12.27 0 0 0 11.986-15.032h8.3a4.784 4.784 0 0 0 0-9.569z" fill="#f8af23"/><rect fill="#f8d323" height="33.007" rx="7.083" transform="matrix(-1 0 0 -1 405.406 219.071)" width="17.426" x="193.99" y="93.032"/><rect fill="#f8af23" height="53.49" rx="22.944" transform="matrix(-.979 .201 -.201 -.979 401.439 126.388)" width="46.873" x="170.85" y="56.88"/><path d="m199.888 86.354-1.532-7.447a22.947 22.947 0 0 0 -18.169-17.915 22.869 22.869 0 0 1 8.228-3.463l.966-.2a22.944 22.944 0 0 1 27.1 17.85l1.532 7.447a22.944 22.944 0 0 1 -17.85 27.1l-.966.2a22.869 22.869 0 0 1 -8.927.066 22.947 22.947 0 0 0 9.618-23.638z" fill="#f8d323"/><path d="m170.223 117.513h66.629a0 0 0 0 1 0 0v80.95a27.083 27.083 0 0 1 -27.083 27.083h-12.463a27.083 27.083 0 0 1 -27.083-27.083v-80.95a0 0 0 0 1 0 0z" fill="#707070" transform="matrix(-1 0 0 -1 407.074 343.059)"/><path d="m194.287 117.684a27.348 27.348 0 0 1 3.019-.172h12.462a27.083 27.083 0 0 1 27.083 27.088v80.95h-18.5v-80.95a27.084 27.084 0 0 0 -24.064-26.916z" fill="#9e9e9e"/><path d="m178.973 217.265 26.973-34.405a12.3 12.3 0 0 0 2.6-6.927l1.99-36.93a12.3 12.3 0 1 0 -24.566-1.324l-1.782 33.057-24.579 31.352a12.3 12.3 0 0 0 19.361 15.178z" fill="#cecece"/><path d="m159.612 202.086 3.429-4.374 19.359 15.179-3.429 4.374a12.3 12.3 0 1 1 -19.361-15.178z" fill="#f8af23"/><g fill="#3f3679"><path d="m27.323 235.019h-18a1.5 1.5 0 0 0 0 3h18a1.5 1.5 0 1 0 0-3z"/><path d="m246.68 235.019h-18a1.5 1.5 0 0 0 0 3h18a1.5 1.5 0 0 0 0-3z"/><path d="m218.479 235.019h-180.958a1.5 1.5 0 0 0 0 3h180.958a1.5 1.5 0 0 0 0-3z"/><path d="m9.32 227.046h237.36a1.5 1.5 0 0 0 0-3h-8.328v-79.446a28.621 28.621 0 0 0 -25.436-28.406v-11.746a24.708 24.708 0 0 0 3.032-3.751 24.282 24.282 0 0 0 3.529-18.373l-1.531-7.446a24.442 24.442 0 0 0 -28.868-19.018l-.965.2a24.442 24.442 0 0 0 -19.013 28.867l1.532 7.447a24.486 24.486 0 0 0 21.858 19.426v4.623a28.624 28.624 0 0 0 -23.767 28.177v43.438l-10.291 13.122a13.791 13.791 0 0 0 10.291 22.3v.59h-81.446v-43.893h38.17a13.816 13.816 0 0 0 13.8-13.8q0-.611-.059-1.232h6.539a6.284 6.284 0 1 0 0-12.568h-58.45v-7.957a28.624 28.624 0 0 0 -23.767-28.173v-5.979a24.475 24.475 0 0 0 21.578-24.271v-7.6a24.471 24.471 0 0 0 -24.443-24.447h-.986a24.471 24.471 0 0 0 -24.444 24.444v7.6a24.38 24.38 0 0 0 7.869 17.946v12.07a28.621 28.621 0 0 0 -25.436 28.41v79.45h-8.328a1.5 1.5 0 0 0 0 3zm164.245-135.277-1.531-7.446a21.444 21.444 0 0 1 16.684-25.323l.965-.2a21.6 21.6 0 0 1 4.364-.447 21.463 21.463 0 0 1 20.961 17.131l1.532 7.447a21.443 21.443 0 0 1 -16.684 25.324l-.966.2a21.465 21.465 0 0 1 -25.325-16.686zm21.925 20.1a24.484 24.484 0 0 0 4-.479l.966-.2a24.34 24.34 0 0 0 9.46-4.19v9.017c-.05 0-.1 0-.148 0h-12.462c-.61 0-1.214.026-1.815.063zm-13.343 98.913-17-13.327 20.225-25.8a1.5 1.5 0 0 0 .317-.845l1.781-33.057a10.8 10.8 0 0 1 10.771-10.221c.2 0 .4.006.595.017a10.8 10.8 0 0 1 10.2 11.366l-1.99 36.93a10.738 10.738 0 0 1 -2.285 6.083zm-23.577.189a10.729 10.729 0 0 1 2.223-7.962l2.5-3.192 17 13.327-2.5 3.193a10.8 10.8 0 0 1 -19.223-5.365zm13.152 12.271a13.692 13.692 0 0 0 8.432-5.054l26.972-34.405a13.733 13.733 0 0 0 2.92-7.772l1.99-36.93a13.8 13.8 0 0 0 -27.562-1.486l-1.756 32.585-11 14.025v-39.605a25.612 25.612 0 0 1 25.583-25.583h12.462a25.612 25.612 0 0 1 25.589 25.583v79.45h-63.629zm-86.973-67.957a1.5 1.5 0 0 0 .86.271h32.78v21.6h-36.66a10.754 10.754 0 0 1 -6.2-1.954l-30.288-21.218a10.8 10.8 0 1 1 12.394-17.692zm36.641.271h24.339a3.284 3.284 0 0 1 0 6.568h-8.3a1.5 1.5 0 0 0 -1.463 1.833 10.767 10.767 0 0 1 -10.522 13.2h-4.054zm-83.175-69.379v-7.6a21.468 21.468 0 0 1 21.443-21.447h.986a21.468 21.468 0 0 1 21.444 21.444v7.6a21.468 21.468 0 0 1 -21.443 21.444h-.986a21.468 21.468 0 0 1 -21.444-21.441zm7.869 20.317a24.3 24.3 0 0 0 13.574 4.127h.852v5.455c-.6-.038-1.205-.063-1.815-.063h-12.463c-.05 0-.1 0-.148 0zm-25.436 38.106a25.612 25.612 0 0 1 25.584-25.583h12.462a25.612 25.612 0 0 1 25.583 25.583v6.7l-24.922-17.465a13.8 13.8 0 1 0 -15.835 22.606l30.292 21.219a13.737 13.737 0 0 0 7.918 2.5h2.548v43.889h-63.63z"/><path d="m103.653 87.74a5.464 5.464 0 0 0 2.84 4.833 5.465 5.465 0 0 0 5.606-.129l9.3-5.762a34.686 34.686 0 0 0 31.949-10.382 34.667 34.667 0 0 0 -49-49 34.792 34.792 0 0 0 -11.015 25.348 34.339 34.339 0 0 0 10.32 24.665zm-7.32-35.092a31.78 31.78 0 0 1 10.067-23.154 31.36 31.36 0 0 1 21.578-8.514q1.131 0 2.273.078a31.668 31.668 0 1 1 -8.823 62.568 1.51 1.51 0 0 0 -1.1.192l-9.806 6.074a2.534 2.534 0 0 1 -3.867-2.153v-11.061a1.5 1.5 0 0 0 -.467-1.087 31.383 31.383 0 0 1 -9.855-22.943z"/></g></svg>